<svg width="314" height="316" viewBox="0 0 314 316" fill="none" xmlns="http://www.w3.org/2000/svg">
<g filter="url(#filter0_d_6_79)">
<path d="M151.941 100L159.012 107.071L128.607 137.477C126.654 139.429 123.488 139.429 121.536 137.477C119.583 135.524 119.583 132.358 121.536 130.406L151.941 100Z" fill="#5C78D3"/>
<path d="M173 121.071L180.071 114L196.335 130.263C198.287 132.216 198.287 135.382 196.335 137.335C194.382 139.287 191.216 139.287 189.263 137.335L173 121.071Z" fill="#5C78D3"/>
<path d="M121.774 137.809C119.821 135.857 119.821 132.691 121.774 130.738C123.726 128.786 126.892 128.786 128.845 130.738L159.251 161.144L152.179 168.215L121.774 137.809Z" fill="#5C78D3"/>
<path d="M189.406 131.536C191.358 129.583 194.524 129.583 196.477 131.536C198.429 133.488 198.429 136.654 196.477 138.607L180.213 154.87L173.142 147.799L189.406 131.536Z" fill="#5C78D3"/>
<path d="M100.6 180.08H104.92C105.387 180.08 105.767 180.193 106.06 180.42C106.354 180.647 106.574 180.94 106.72 181.3L113.54 198.94C113.767 199.513 113.98 200.147 114.18 200.84C114.394 201.52 114.594 202.233 114.78 202.98C114.927 202.233 115.094 201.52 115.28 200.84C115.48 200.147 115.694 199.513 115.92 198.94L122.7 181.3C122.807 180.993 123.014 180.713 123.32 180.46C123.64 180.207 124.027 180.08 124.48 180.08H128.82L117.14 209H112.28L100.6 180.08ZM137.95 188.16C139.47 188.16 140.85 188.407 142.09 188.9C143.343 189.393 144.41 190.093 145.29 191C146.183 191.907 146.87 193.013 147.35 194.32C147.83 195.627 148.07 197.087 148.07 198.7C148.07 200.327 147.83 201.793 147.35 203.1C146.87 204.407 146.183 205.52 145.29 206.44C144.41 207.36 143.343 208.067 142.09 208.56C140.85 209.053 139.47 209.3 137.95 209.3C136.416 209.3 135.023 209.053 133.77 208.56C132.516 208.067 131.443 207.36 130.55 206.44C129.67 205.52 128.983 204.407 128.49 203.1C128.01 201.793 127.77 200.327 127.77 198.7C127.77 197.087 128.01 195.627 128.49 194.32C128.983 193.013 129.67 191.907 130.55 191C131.443 190.093 132.516 189.393 133.77 188.9C135.023 188.407 136.416 188.16 137.95 188.16ZM137.95 205.5C139.656 205.5 140.916 204.927 141.73 203.78C142.556 202.633 142.97 200.953 142.97 198.74C142.97 196.527 142.556 194.84 141.73 193.68C140.916 192.52 139.656 191.94 137.95 191.94C136.216 191.94 134.93 192.527 134.09 193.7C133.263 194.86 132.85 196.54 132.85 198.74C132.85 200.94 133.263 202.62 134.09 203.78C134.93 204.927 136.216 205.5 137.95 205.5ZM159.288 209.32C157.501 209.32 156.128 208.82 155.168 207.82C154.221 206.807 153.748 205.413 153.748 203.64V192.18H151.648C151.381 192.18 151.154 192.093 150.968 191.92C150.781 191.747 150.688 191.487 150.688 191.14V189.18L153.988 188.64L155.028 183.04C155.094 182.773 155.221 182.567 155.408 182.42C155.594 182.273 155.834 182.2 156.128 182.2H158.688V188.66H173.148V209H168.208V192.18H158.688V203.3C158.688 203.94 158.841 204.44 159.148 204.8C159.468 205.16 159.901 205.34 160.448 205.34C160.754 205.34 161.008 205.307 161.208 205.24C161.421 205.16 161.601 205.08 161.748 205C161.908 204.92 162.048 204.847 162.168 204.78C162.288 204.7 162.408 204.66 162.528 204.66C162.674 204.66 162.794 204.7 162.888 204.78C162.981 204.847 163.081 204.953 163.188 205.1L164.668 207.5C163.948 208.1 163.121 208.553 162.188 208.86C161.254 209.167 160.288 209.32 159.288 209.32ZM174.008 182.42C174.008 182.847 173.921 183.253 173.748 183.64C173.574 184.013 173.341 184.34 173.048 184.62C172.768 184.9 172.428 185.127 172.028 185.3C171.641 185.46 171.228 185.54 170.788 185.54C170.361 185.54 169.961 185.46 169.588 185.3C169.214 185.127 168.888 184.9 168.608 184.62C168.328 184.34 168.101 184.013 167.928 183.64C167.768 183.253 167.688 182.847 167.688 182.42C167.688 181.98 167.768 181.573 167.928 181.2C168.101 180.813 168.328 180.48 168.608 180.2C168.888 179.907 169.214 179.68 169.588 179.52C169.961 179.347 170.361 179.26 170.788 179.26C171.228 179.26 171.641 179.347 172.028 179.52C172.428 179.68 172.768 179.907 173.048 180.2C173.341 180.48 173.574 180.813 173.748 181.2C173.921 181.573 174.008 181.98 174.008 182.42ZM180.63 209V192.2L178.85 191.92C178.463 191.84 178.15 191.707 177.91 191.52C177.683 191.32 177.57 191.04 177.57 190.68V188.66H180.63V187.14C180.63 185.967 180.803 184.913 181.15 183.98C181.51 183.047 182.017 182.253 182.67 181.6C183.337 180.947 184.143 180.447 185.09 180.1C186.037 179.753 187.103 179.58 188.29 179.58C189.237 179.58 190.117 179.707 190.93 179.96L190.83 182.44C190.817 182.627 190.763 182.78 190.67 182.9C190.577 183.007 190.45 183.093 190.29 183.16C190.143 183.213 189.97 183.253 189.77 183.28C189.57 183.293 189.357 183.3 189.13 183.3C188.543 183.3 188.017 183.367 187.55 183.5C187.097 183.62 186.71 183.84 186.39 184.16C186.07 184.467 185.823 184.88 185.65 185.4C185.49 185.907 185.41 186.54 185.41 187.3V188.66H190.75V192.18H185.57V209H180.63ZM201.986 214.64C201.839 214.987 201.646 215.247 201.406 215.42C201.179 215.607 200.826 215.7 200.346 215.7H196.666L200.506 207.48L192.206 188.48H196.546C196.933 188.48 197.233 188.573 197.446 188.76C197.673 188.947 197.839 189.16 197.946 189.4L202.306 200.04C202.573 200.773 202.793 201.5 202.966 202.22C203.073 201.847 203.186 201.48 203.306 201.12C203.439 200.747 203.579 200.38 203.726 200.02L207.846 189.4C207.953 189.133 208.126 188.913 208.366 188.74C208.619 188.567 208.899 188.48 209.206 188.48H213.166L201.986 214.64Z" fill="#5C78D3"/>
</g>
<defs>
<filter id="filter0_d_6_79" x="0.600342" y="0" width="312.566" height="315.7" filterUnits="userSpaceOnUse" color-interpolation-filters="sRGB">
<feFlood flood-opacity="0" result="BackgroundImageFix"/>
<feColorMatrix in="SourceAlpha" type="matrix" values="0 0 0 0 0 0 0 0 0 0 0 0 0 0 0 0 0 0 127 0" result="hardAlpha"/>
<feOffset/>
<feGaussianBlur stdDeviation="50"/>
<feComposite in2="hardAlpha" operator="out"/>
<feColorMatrix type="matrix" values="0 0 0 0 0.101979 0 0 0 0 0.357854 0 0 0 0 0.741667 0 0 0 1 0"/>
<feBlend mode="normal" in2="BackgroundImageFix" result="effect1_dropShadow_6_79"/>
<feBlend mode="normal" in="SourceGraphic" in2="effect1_dropShadow_6_79" result="shape"/>
</filter>
</defs>
</svg>
